<?xml version="1.0" standalone="no"?>
<!DOCTYPE svg PUBLIC "-//W3C//DTD SVG 20010904//EN"
 "http://www.w3.org/TR/2001/REC-SVG-20010904/DTD/svg10.dtd">
<svg version="1.0" xmlns="http://www.w3.org/2000/svg"
 width="1125.000000pt" height="471.000000pt" viewBox="0 0 1125.000000 471.000000"
 preserveAspectRatio="xMidYMid meet">

<g transform="translate(0.000000,471.000000) scale(0.100000,-0.100000)"
fill="#000000" stroke="none">
<path d="M4770 4210 c-140 -3 -256 -7 -258 -8 -1 -1 -1 -68 0 -148 l3 -146
158 1 157 2 0 -133 c0 -73 7 -428 15 -788 8 -360 15 -672 15 -692 l0 -38 150
0 150 0 0 38 c0 20 -7 332 -15 692 -8 360 -15 717 -15 793 l0 137 150 0 c126
0 152 3 157 15 3 9 2 76 -2 150 l-7 135 -202 -2 c-110 -1 -316 -5 -456 -8z"/>
<path d="M5720 4183 c0 -21 -7 -458 -16 -971 -9 -513 -13 -936 -10 -940 4 -4
72 -8 152 -10 l144 -4 0 65 c0 63 -2 68 -49 131 -69 90 -93 160 -93 266 0 62
6 100 21 141 26 69 73 136 106 151 19 9 25 19 25 45 0 33 0 33 48 33 26 0 105
-3 176 -7 l128 -6 -3 -221 -4 -221 125 -71 c69 -39 135 -75 148 -78 21 -7 22
-5 22 66 0 40 7 426 15 857 8 432 12 787 9 790 -3 3 -70 8 -148 9 l-143 4 -6
-174 c-4 -95 -7 -276 -7 -403 0 -126 -4 -236 -9 -244 -7 -11 -40 -12 -176 -6
l-168 8 7 413 8 414 -151 0 -151 0 0 -37z"/>
<path d="M4060 4187 c-80 -5 -148 -11 -151 -15 -4 -4 15 -349 41 -767 33 -539
44 -770 37 -795 -5 -19 -26 -51 -46 -71 -41 -41 -89 -55 -148 -44 -50 9 -119
78 -127 125 -3 19 -26 369 -51 778 -24 409 -47 746 -49 750 -4 7 -277 -6 -285
-13 -9 -9 92 -1535 105 -1594 20 -87 56 -151 123 -214 99 -95 200 -137 326
-137 221 0 406 145 461 362 15 58 14 100 -32 847 -26 432 -50 788 -53 791 -3
3 -71 2 -151 -3z"/>
<path d="M6995 4189 c-3 -4 -29 -409 -57 -899 -44 -757 -49 -893 -37 -900 16
-10 128 -36 230 -53 l72 -12 51 54 c28 30 72 71 98 91 l47 38 -31 6 c-17 3
-63 6 -102 6 l-71 0 14 262 c8 145 15 265 17 267 2 2 89 -2 195 -8 105 -7 193
-11 195 -9 7 7 21 283 15 290 -3 4 -91 12 -196 18 -104 7 -191 13 -191 14 -3
2 28 521 31 524 1 1 120 -5 265 -14 144 -8 266 -12 270 -7 4 4 11 72 15 151 6
140 6 142 -15 142 -26 0 -696 38 -763 43 -26 2 -50 1 -52 -4z"/>
<path d="M8100 4122 c0 -10 -137 -1321 -145 -1383 l-5 -46 72 -7 c40 -3 98
-13 128 -22 107 -30 95 -42 108 97 7 68 14 124 15 126 6 5 182 -19 188 -25 3
-4 23 -140 44 -302 21 -162 39 -296 40 -297 4 -6 307 -25 311 -20 3 3 -18 163
-46 356 l-52 352 59 62 c99 102 118 153 144 377 25 219 25 339 -1 421 -38 123
-130 207 -270 249 -36 11 -170 31 -303 45 -260 27 -287 29 -287 17z m395 -337
c92 -8 126 -20 159 -54 38 -40 41 -82 21 -278 -18 -175 -27 -206 -73 -248 -41
-38 -79 -45 -197 -33 l-106 11 5 26 c3 14 17 143 31 286 32 325 29 308 63 301
15 -2 59 -8 97 -11z"/>
<path d="M2379 4057 c-119 -41 -212 -125 -269 -240 -58 -121 -58 -136 13 -754
35 -304 66 -555 69 -558 3 -4 32 1 64 9 33 8 96 20 141 27 l81 12 -4 31 c-18
123 -114 1007 -114 1044 0 56 34 113 83 139 47 25 125 22 169 -5 67 -42 70
-57 133 -612 31 -278 59 -524 62 -546 l5 -41 72 -7 c39 -3 105 -15 146 -26 41
-11 78 -20 83 -20 4 0 7 22 7 48 0 58 -116 1085 -131 1159 -27 133 -124 255
-257 320 -71 35 -82 38 -181 41 -90 2 -116 -1 -172 -21z"/>
<path d="M9292 3109 c-89 -480 -159 -876 -156 -880 3 -5 40 -9 83 -9 l78 0 38
118 c57 179 72 202 130 202 14 0 26 7 29 18 2 9 31 160 63 335 32 175 60 312
62 305 2 -6 32 -224 65 -482 l62 -471 146 3 146 3 21 -27 c27 -34 27 -69 -1
-124 -31 -60 -98 -95 -202 -105 -72 -6 -76 -8 -76 -31 0 -31 0 -31 176 -63
l145 -27 4 20 c14 58 353 1901 351 1904 -4 4 -259 52 -276 52 -13 0 -37 -117
-130 -617 -62 -340 -116 -621 -119 -625 -4 -4 -38 291 -76 655 l-70 662 -140
27 c-77 15 -151 27 -166 27 l-25 1 -162 -871z"/>
<path d="M1215 3893 c-201 -27 -353 -155 -394 -334 -28 -118 -1 -294 61 -411
66 -125 165 -209 454 -388 256 -159 318 -232 319 -376 0 -61 -4 -76 -28 -113
-37 -56 -80 -81 -140 -81 -86 0 -144 50 -205 177 -19 40 -38 73 -43 73 -17 0
-244 -64 -253 -71 -25 -22 75 -228 153 -311 89 -96 203 -148 324 -148 59 0
133 12 143 23 3 3 12 31 21 64 37 144 136 277 270 366 l64 42 -7 45 c-18 138
-95 273 -223 392 -75 69 -131 107 -344 232 -200 117 -298 276 -265 429 13 62
49 101 106 117 87 23 157 -23 210 -138 13 -29 29 -51 36 -49 261 102 257 99
250 121 -19 63 -72 153 -120 206 -100 107 -235 153 -389 133z"/>
<path d="M5972 2918 c-88 -128 -83 -289 14 -418 115 -153 345 -281 688 -385
128 -38 344 -85 395 -85 17 0 31 -4 31 -10 0 -19 -185 -380 -194 -380 -6 0
-81 -23 -168 -50 -169 -54 -184 -66 -125 -96 40 -22 110 -21 177 1 28 9 53 15
56 13 2 -3 -16 -47 -40 -99 -69 -149 -116 -275 -149 -399 -28 -106 -30 -128
-31 -290 -1 -169 0 -177 25 -230 14 -31 40 -72 57 -91 55 -63 185 -118 198
-84 4 8 -13 47 -36 85 -26 43 -44 87 -47 113 -10 85 41 308 117 512 81 218
222 532 248 553 20 15 172 16 226 1 58 -16 116 -75 131 -134 11 -44 16 -50 41
-53 64 -8 134 71 134 151 -1 48 -33 109 -76 145 -62 51 -122 67 -256 66 -65
-1 -118 3 -118 8 0 4 27 62 60 128 l60 120 130 0 129 0 3 -46 c2 -30 9 -51 20
-57 17 -11 23 -8 126 68 116 84 420 107 1183 88 l316 -8 -107 -250 c-59 -137
-162 -371 -230 -520 -164 -360 -201 -460 -207 -556 -5 -60 -2 -83 12 -113 37
-79 126 -98 226 -49 63 31 294 257 322 315 17 36 14 68 -6 68 -5 0 -79 -67
-163 -150 -97 -96 -160 -150 -173 -150 -12 0 -21 4 -21 8 0 43 162 420 340
792 62 129 152 318 200 420 l86 185 175 5 c159 5 177 7 211 28 39 24 48 39 48
78 0 24 -1 25 -57 19 -88 -9 -317 -24 -320 -22 -1 2 5 22 13 46 11 32 12 51 4
80 -13 48 -75 119 -141 161 -41 27 -52 31 -60 19 -5 -8 -30 -81 -56 -163 l-48
-149 -235 7 c-250 7 -746 38 -755 48 -3 3 1 18 10 34 18 35 19 112 3 166 -25
85 -121 161 -245 193 -86 23 -251 20 -353 -6 -210 -53 -423 -184 -507 -310
l-24 -36 -92 14 c-384 61 -763 226 -973 425 -77 73 -127 155 -139 226 -4 25
-12 42 -20 42 -8 0 -27 -19 -43 -42z m2208 -494 c47 -20 80 -53 80 -80 0 -64
-98 -117 -235 -128 -44 -3 -94 -10 -112 -15 -35 -10 -353 6 -366 18 -12 12 99
109 163 141 161 81 362 108 470 64z"/>
<path d="M7945 2373 c-27 -7 -35 -21 -35 -66 l0 -38 48 5 c26 3 72 8 102 11
63 7 125 34 125 54 0 8 -16 20 -35 27 -34 12 -165 17 -205 7z"/>
<path d="M7700 2280 c-13 -8 -12 -10 3 -10 9 0 17 5 17 10 0 12 -1 12 -20 0z"/>
<path d="M2495 2489 c-519 -56 -825 -300 -825 -658 0 -97 23 -146 109 -231 73
-72 162 -122 219 -124 l37 -1 58 119 c36 72 55 122 49 128 -5 5 -44 4 -100 -3
-179 -23 -262 10 -262 103 0 207 164 399 411 483 129 44 230 59 404 59 191 0
257 -14 394 -80 169 -82 306 -247 346 -415 19 -81 19 -235 1 -331 -60 -308
-280 -623 -571 -813 -387 -254 -845 -313 -1032 -133 -48 47 -63 86 -63 170 0
152 96 261 273 313 99 29 101 26 55 -89 -45 -115 -55 -173 -38 -234 20 -75
130 -166 162 -134 7 7 5 28 -7 68 -9 32 -14 73 -11 92 2 18 39 96 82 172 72
133 78 140 103 134 69 -15 125 -39 178 -75 100 -68 104 -61 76 119 -14 95 -20
110 -46 135 -16 15 -49 32 -73 38 -25 6 -46 15 -49 19 -2 4 36 95 85 202 147
320 173 411 135 465 -19 27 -141 113 -160 113 -8 0 -21 -10 -29 -22 -21 -34
-94 -223 -181 -473 -42 -121 -81 -228 -86 -237 -8 -14 -23 -18 -73 -18 -252 0
-471 -171 -521 -407 -41 -192 3 -364 120 -471 95 -87 186 -123 363 -143 221
-25 560 49 814 177 142 72 337 227 441 352 166 199 302 480 342 706 19 111 19
180 0 289 -30 173 -89 290 -200 402 -107 107 -213 162 -404 212 -80 21 -124
25 -266 28 -93 2 -210 -1 -260 -6z"/>
<path d="M2425 2294 c-76 -12 -135 -26 -135 -34 0 -5 21 -27 46 -49 38 -33 54
-41 86 -41 29 0 54 -10 98 -40 55 -38 63 -40 132 -40 113 0 224 38 302 104
l29 24 -29 15 c-88 45 -166 60 -334 62 -91 2 -178 1 -195 -1z"/>
<path d="M4963 2033 c-30 -6 -29 -8 8 -51 18 -20 45 -64 61 -99 55 -118 34
-257 -72 -478 -56 -117 -162 -280 -246 -381 -95 -114 -327 -354 -336 -348 -37
23 27 136 335 587 66 97 61 167 -19 256 -41 45 -115 88 -133 76 -5 -2 -14 -31
-20 -64 -12 -60 -67 -180 -161 -351 -28 -52 -70 -136 -93 -187 -40 -86 -47
-96 -147 -185 -182 -161 -234 -195 -320 -205 -61 -7 -93 11 -110 63 -14 40 -8
138 10 190 10 29 15 32 74 37 84 8 160 38 243 96 76 54 138 119 178 187 32 54
60 163 51 198 -17 69 -138 156 -217 156 -67 0 -166 -53 -277 -150 -147 -128
-240 -259 -293 -412 -49 -141 -48 -280 2 -348 72 -97 219 -138 380 -106 109
22 145 44 257 159 l92 94 0 -54 c0 -90 42 -142 131 -162 l44 -10 218 217 c534
532 677 730 677 938 0 176 -110 328 -246 338 -27 3 -59 2 -71 -1z m-794 -712
c55 -35 -139 -253 -267 -301 -51 -19 -112 -27 -112 -14 0 4 20 34 44 68 60 85
188 203 250 232 56 26 65 28 85 15z"/>
<path d="M8663 1705 c-93 -17 -162 -55 -228 -127 -143 -155 -173 -353 -76
-499 23 -34 41 -64 41 -68 0 -4 -39 -24 -86 -46 -47 -21 -111 -56 -143 -77
-53 -36 -85 -60 -253 -190 -89 -69 -131 -88 -197 -88 -59 0 -87 23 -97 78 -8
39 1 124 16 169 11 29 14 31 81 35 137 10 326 135 406 270 37 61 69 174 59
212 -14 57 -103 132 -184 157 -33 10 -51 10 -84 0 -71 -21 -147 -72 -173 -117
-25 -43 -53 -66 -95 -79 -79 -24 -232 -254 -276 -415 -11 -39 -18 -99 -17
-151 0 -75 4 -93 25 -131 56 -94 171 -143 317 -136 117 6 192 32 253 87 27 24
50 42 51 40 2 -2 10 -21 20 -41 49 -109 243 -159 412 -107 188 58 237 219 172
562 -15 76 -27 160 -27 186 0 95 97 237 235 346 134 104 131 102 119 122 -9
15 -26 18 -105 20 -52 1 -126 -4 -166 -12z m-573 -404 c0 -28 -75 -135 -128
-182 -63 -56 -110 -85 -170 -104 -85 -28 -90 -20 -34 60 90 128 234 243 305
245 20 0 27 -5 27 -19z m354 -412 c35 -174 -63 -284 -223 -251 -62 13 -91 35
-91 68 0 28 44 80 98 118 35 24 187 96 203 96 4 0 9 -14 13 -31z"/>
<path d="M5740 1233 c-127 -5 -296 -23 -329 -34 -31 -11 -61 -52 -61 -84 0 -8
11 -20 25 -25 47 -18 287 -30 594 -30 287 0 305 1 340 21 56 31 101 108 81
139 -8 13 -52 15 -292 16 -156 0 -317 -1 -358 -3z"/>
</g>
</svg>
